<svg xmlns="http://www.w3.org/2000/svg" viewBox="0 0 1400 500" width="1400" height="500">
  <defs>
    <linearGradient id="ctabg" x1="0" y1="0" x2="1" y2="1">
      <stop offset="0%" stop-color="#050c14"/>
      <stop offset="100%" stop-color="#0d1b2a"/>
    </linearGradient>
    <radialGradient id="glow1" cx="30%" cy="50%" r="40%">
      <stop offset="0%" stop-color="#e85d04" stop-opacity="0.18"/>
      <stop offset="100%" stop-color="#e85d04" stop-opacity="0"/>
    </radialGradient>
    <radialGradient id="glow2" cx="70%" cy="50%" r="40%">
      <stop offset="0%" stop-color="#f4a926" stop-opacity="0.1"/>
      <stop offset="100%" stop-color="#f4a926" stop-opacity="0"/>
    </radialGradient>
  </defs>
  <rect width="1400" height="500" fill="url(#ctabg)"/>
  <rect width="1400" height="500" fill="url(#glow1)"/>
  <rect width="1400" height="500" fill="url(#glow2)"/>
  <!-- Grid lines -->
  <line x1="0" y1="100" x2="1400" y2="100" stroke="white" stroke-width="0.5" opacity="0.04"/>
  <line x1="0" y1="200" x2="1400" y2="200" stroke="white" stroke-width="0.5" opacity="0.04"/>
  <line x1="0" y1="300" x2="1400" y2="300" stroke="white" stroke-width="0.5" opacity="0.04"/>
  <line x1="0" y1="400" x2="1400" y2="400" stroke="white" stroke-width="0.5" opacity="0.04"/>
  <line x1="200" y1="0" x2="200" y2="500" stroke="white" stroke-width="0.5" opacity="0.04"/>
  <line x1="400" y1="0" x2="400" y2="500" stroke="white" stroke-width="0.5" opacity="0.04"/>
  <line x1="600" y1="0" x2="600" y2="500" stroke="white" stroke-width="0.5" opacity="0.04"/>
  <line x1="800" y1="0" x2="800" y2="500" stroke="white" stroke-width="0.5" opacity="0.04"/>
  <line x1="1000" y1="0" x2="1000" y2="500" stroke="white" stroke-width="0.5" opacity="0.04"/>
  <line x1="1200" y1="0" x2="1200" y2="500" stroke="white" stroke-width="0.5" opacity="0.04"/>
  <!-- Decorative circles -->
  <circle cx="150" cy="250" r="180" fill="none" stroke="#e85d04" stroke-width="1" opacity="0.08"/>
  <circle cx="150" cy="250" r="120" fill="none" stroke="#e85d04" stroke-width="1" opacity="0.06"/>
  <circle cx="1250" cy="250" r="200" fill="none" stroke="#f4a926" stroke-width="1" opacity="0.06"/>
  <circle cx="1250" cy="250" r="140" fill="none" stroke="#f4a926" stroke-width="1" opacity="0.04"/>
  <!-- Fuel drops -->
  <path d="M200 180 Q200 140 215 120 Q230 140 230 180 Q230 200 215 205 Q200 200 200 180 Z" fill="#e85d04" opacity="0.12"/>
  <path d="M1180 180 Q1180 140 1195 120 Q1210 140 1210 180 Q1210 200 1195 205 Q1180 200 1180 180 Z" fill="#f4a926" opacity="0.1"/>
  <!-- Stars/dots -->
  <circle cx="400" cy="80" r="1.5" fill="white" opacity="0.4"/>
  <circle cx="700" cy="50" r="1" fill="white" opacity="0.3"/>
  <circle cx="1000" cy="90" r="1.3" fill="white" opacity="0.4"/>
  <circle cx="300" cy="400" r="1" fill="white" opacity="0.3"/>
  <circle cx="1100" cy="380" r="1.2" fill="white" opacity="0.35"/>
</svg>
